<svg id="vector" xmlns="http://www.w3.org/2000/svg" width="45" height="45" viewBox="0 0 45 45">
    <path fill="#00000000" d="M22.5,11.63L22.5,6" stroke-linejoin="miter" stroke-width="1.5" stroke="#000000"
          fill-rule="evenodd" stroke-linecap="round" id="path_0"/>
    <path fill="#00000000" d="M20,8L25,8" stroke-linejoin="miter" stroke-width="1.5" stroke="#000000"
          fill-rule="evenodd" stroke-linecap="round" id="path_1"/>
    <path fill="#ffffff"
          d="M22.5,25C22.5,25 27,17.5 25.5,14.5C25.5,14.5 24.5,12 22.5,12C20.5,12 19.5,14.5 19.5,14.5C18,17.5 22.5,25 22.5,25"
          stroke-linejoin="miter" stroke-width="1.5" stroke="#000000" fill-rule="evenodd" stroke-linecap="butt"
          id="path_2"/>
    <path fill="#ffffff"
          d="M12.5,37C18,40.5 27,40.5 32.5,37L32.5,30C32.5,30 41.5,25.5 38.5,19.5C34.5,13 25,16 22.5,23.5L22.5,27L22.5,23.5C20,16 10.5,13 6.5,19.5C3.5,25.5 12.5,30 12.5,30L12.5,37"
          stroke-linejoin="round" stroke-width="1.5" stroke="#000000" fill-rule="evenodd" stroke-linecap="round"
          id="path_3"/>
    <path fill="#00000000" d="M12.5,30C18,27 27,27 32.5,30" stroke-linejoin="round" stroke-width="1.5" stroke="#000000"
          fill-rule="evenodd" stroke-linecap="round" id="path_4"/>
    <path fill="#00000000" d="M12.5,33.5C18,30.5 27,30.5 32.5,33.5" stroke-linejoin="round" stroke-width="1.5"
          stroke="#000000" fill-rule="evenodd" stroke-linecap="round" id="path_5"/>
    <path fill="#00000000" d="M12.5,37C18,34 27,34 32.5,37" stroke-linejoin="round" stroke-width="1.5" stroke="#000000"
          fill-rule="evenodd" stroke-linecap="round" id="path_6"/>
</svg>