<svg id="vector" xmlns="http://www.w3.org/2000/svg" width="45" height="45" viewBox="0 0 45 45">
    <path fill="#000000" d="M9,39L36,39L36,36L9,36L9,39z" stroke-linejoin="round" stroke-width="1.5" stroke="#000000"
          fill-rule="evenodd" stroke-linecap="butt" id="path_0"/>
    <path fill="#000000" d="M12.5,32L14,29.5L31,29.5L32.5,32L12.5,32z" stroke-linejoin="round" stroke-width="1.5"
          stroke="#000000" fill-rule="evenodd" stroke-linecap="butt" id="path_1"/>
    <path fill="#000000" d="M12,36L12,32L33,32L33,36L12,36z" stroke-linejoin="round" stroke-width="1.5" stroke="#000000"
          fill-rule="evenodd" stroke-linecap="butt" id="path_2"/>
    <path fill="#000000" d="M14,29.5L14,16.5L31,16.5L31,29.5L14,29.5z" stroke-linejoin="miter" stroke-width="1.5"
          stroke="#000000" fill-rule="evenodd" stroke-linecap="butt" id="path_3"/>
    <path fill="#000000" d="M14,16.5L11,14L34,14L31,16.5L14,16.5z" stroke-linejoin="round" stroke-width="1.5"
          stroke="#000000" fill-rule="evenodd" stroke-linecap="butt" id="path_4"/>
    <path fill="#000000" d="M11,14L11,9L15,9L15,11L20,11L20,9L25,9L25,11L30,11L30,9L34,9L34,14L11,14z"
          stroke-linejoin="round" stroke-width="1.5" stroke="#000000" fill-rule="evenodd" stroke-linecap="butt"
          id="path_5"/>
    <path fill="#00000000" d="M12,35.5L33,35.5L33,35.5" stroke-linejoin="miter" stroke-width="1" stroke="#ffffff"
          fill-rule="evenodd" stroke-linecap="round" id="path_6"/>
    <path fill="#00000000" d="M13,31.5L32,31.5" stroke-linejoin="miter" stroke-width="1" stroke="#ffffff"
          fill-rule="evenodd" stroke-linecap="round" id="path_7"/>
    <path fill="#00000000" d="M14,29.5L31,29.5" stroke-linejoin="miter" stroke-width="1" stroke="#ffffff"
          fill-rule="evenodd" stroke-linecap="round" id="path_8"/>
    <path fill="#00000000" d="M14,16.5L31,16.5" stroke-linejoin="miter" stroke-width="1" stroke="#ffffff"
          fill-rule="evenodd" stroke-linecap="round" id="path_9"/>
    <path fill="#00000000" d="M11,14L34,14" stroke-linejoin="miter" stroke-width="1" stroke="#ffffff"
          fill-rule="evenodd" stroke-linecap="round" id="path_10"/>
</svg>